<svg width="1036" height="566" viewBox="0 0 1036 566" fill="none" xmlns="http://www.w3.org/2000/svg">
<g filter="url(#filter0_d_17_25)">
<path d="M0 76.0001C0 76.0001 8 101 37 101C66 101 60 36.0002 105 29.0002C150 22.0002 141 7.00011 160 62.0001C179 117 232 109 232 87.0001C232 65.0001 238 85.0003 301 51.0001C364 17 364 159 364 130C364 101 375 109 392 87.0001C409 65.0001 421.908 92.3608 439 101C464.051 113.662 465.974 158.181 492.5 149C516.599 140.659 497.483 107.238 513 87.0001C528.62 66.6283 544.435 61.1825 568 51.0001C589.824 41.5702 627 118 627 36.0001C627 -45.9997 676.335 39.1468 705 51.0001C729.33 61.0608 749 167 762 87.0001C775 7 826 62.0001 826 62.0001C826 62.0001 836 112 888 44.0001C940 -24 933.638 27.4078 961 36.0001C978.932 41.6312 974 15.0002 1001.5 62.0001C1029 109 1036 87.0001 1036 87.0001C1036 87.0001 1200.73 476.42 1036 533C1022.83 537.524 1015.39 543.028 1001.5 542C974.632 540.01 955 508 951 495C947 482 950.107 455.864 932 447C913.144 437.77 898.414 452.274 881 464C865.289 474.579 848.5 500 848.5 500C848.5 500 800 554 787 533C774 512.001 735 603 731 525C727 447 683.632 517.483 660 500C644.668 488.657 644.443 471.712 627 464C598.639 451.461 582.001 487.732 551 487C522.233 486.322 481 464 481 464C481 464 454.5 434.5 458 508C461.5 581.5 420.5 525 405 525C389.5 525 352 453 347 508C342 563 316.5 489.5 319 481C321.5 472.5 329 447 319 447C309 447 307 494 295 453C283 412 274 481 274 481C273.665 493.058 282.535 497.817 289 508C295.448 518.157 290 512.001 307 533C324 554 303.5 562 289 548C274.5 534 266.5 522.5 267 533C267.5 543.501 243 508 243 508C235.972 496.375 238.889 486.708 232 475C224.297 461.908 206 371 205 447C204 523 177.882 460.496 166 475C150.734 493.635 161.894 515.828 145 533C132.627 545.577 122.637 554.44 105 554C92.3857 553.685 86.3238 547.567 75 542C59.2487 534.256 50.8021 528.843 37 518C20.931 505.377 0 481 0 481V76.0001Z" fill="url(#paint0_linear_17_25)"/>
</g>
<defs>
<filter id="filter0_d_17_25" x="-4" y="0.747889" width="1117.21" height="564.442" filterUnits="userSpaceOnUse" color-interpolation-filters="sRGB">
<feFlood flood-opacity="0" result="BackgroundImageFix"/>
<feColorMatrix in="SourceAlpha" type="matrix" values="0 0 0 0 0 0 0 0 0 0 0 0 0 0 0 0 0 0 127 0" result="hardAlpha"/>
<feOffset dy="4"/>
<feGaussianBlur stdDeviation="2"/>
<feComposite in2="hardAlpha" operator="out"/>
<feColorMatrix type="matrix" values="0 0 0 0 0 0 0 0 0 0 0 0 0 0 0 0 0 0 0.25 0"/>
<feBlend mode="normal" in2="BackgroundImageFix" result="effect1_dropShadow_17_25"/>
<feBlend mode="normal" in="SourceGraphic" in2="effect1_dropShadow_17_25" result="shape"/>
</filter>
<linearGradient id="paint0_linear_17_25" x1="518" y1="0.74789" x2="518" y2="557.189" gradientUnits="userSpaceOnUse">
<stop offset="0.259615" stop-color="#2B20A0"/>
<stop offset="1" stop-color="#100C3A"/>
</linearGradient>
</defs>
</svg>
